<svg width="127" height="126" viewBox="0 0 127 126" fill="none" xmlns="http://www.w3.org/2000/svg">
<path d="M22.7244 33.523C22.7244 36.607 20.2214 39.1099 17.1375 39.1099C14.0536 39.1099 11.5507 36.607 11.5507 33.523C11.5507 30.4391 14.0536 27.9362 17.1375 27.9362C20.2214 27.9362 22.7244 30.4391 22.7244 33.523Z" fill="black" stroke="white" stroke-width="1.5" stroke-linecap="round" stroke-linejoin="round"/>
<path d="M68.8158 20.9526C68.8158 24.0366 66.3129 26.5395 63.2289 26.5395C60.145 26.5395 57.6421 24.0366 57.6421 20.9526C57.6421 17.8687 60.145 15.3658 63.2289 15.3658C66.3129 15.3658 68.8158 17.8687 68.8158 20.9526Z" fill="black" stroke="white" stroke-width="1.5" stroke-linecap="round" stroke-linejoin="round"/>
<path d="M114.907 33.523C114.907 36.607 112.404 39.1099 109.32 39.1099C106.237 39.1099 103.734 36.607 103.734 33.523C103.734 30.4391 106.237 27.9362 109.32 27.9362C112.404 27.9362 114.907 30.4391 114.907 33.523Z" fill="black" stroke="white" stroke-width="1.5" stroke-linecap="round" stroke-linejoin="round"/>
<path d="M45.0718 23.7461C45.0718 26.83 42.5689 29.3329 39.4849 29.3329C36.401 29.3329 33.8981 26.83 33.8981 23.7461C33.8981 20.6621 36.401 18.1592 39.4849 18.1592C42.5689 18.1592 45.0718 20.6621 45.0718 23.7461Z" fill="black" stroke="white" stroke-width="1.5" stroke-linecap="round" stroke-linejoin="round"/>
<path d="M92.5599 25.1428C92.5599 28.2267 90.057 30.7296 86.9731 30.7296C83.8891 30.7296 81.3862 28.2267 81.3862 25.1428C81.3862 22.0588 83.8891 19.5559 86.9731 19.5559C90.057 19.5559 92.5599 22.0588 92.5599 25.1428Z" fill="black" stroke="white" stroke-width="1.5" stroke-linecap="round" stroke-linejoin="round"/>
<path d="M25.5178 72.631C49.2619 68.4408 84.1796 68.4408 100.94 72.631L106.527 39.1099L86.9731 69.8375V30.7296L71.6092 68.4408L63.229 26.5395L54.8487 68.4408L39.4849 29.3329V69.8375L19.9309 39.1099L25.5178 72.631Z" fill="black" stroke="white" stroke-width="1.5" stroke-linejoin="round"/>
<path d="M25.5178 72.6309C25.5178 78.2178 29.708 78.2178 32.5014 83.8046C35.2948 87.9948 35.2948 86.5981 33.8981 93.5816C29.708 96.375 29.708 100.565 29.708 100.565C25.5178 104.755 31.1047 107.549 31.1047 107.549C49.2619 110.342 77.1961 110.342 95.3534 107.549C95.3534 107.549 99.5435 104.755 95.3534 100.565C95.3534 100.565 96.7501 96.375 92.56 93.5816C91.1633 86.5981 91.1633 87.9948 93.9567 83.8046C96.7501 78.2178 100.94 78.2178 100.94 72.6309C77.1961 68.4408 49.2619 68.4408 25.5178 72.6309Z" fill="black" stroke="white" stroke-width="1.5" stroke-linejoin="round"/>
<path d="M32.5013 83.8047C42.2783 81.0112 84.1797 81.0112 93.9566 83.8047" stroke="white" stroke-width="1.5" stroke-linecap="round" stroke-linejoin="round"/>
<path d="M33.8981 93.5816C50.6586 90.7882 75.7994 90.7882 92.56 93.5816" stroke="white" stroke-width="1.5" stroke-linecap="round" stroke-linejoin="round"/>
</svg>
