<svg width="127" height="126" viewBox="0 0 127 126" fill="none" xmlns="http://www.w3.org/2000/svg">
<path d="M63.3539 32.4895V16.7625" stroke="white" stroke-width="1.5" stroke-linecap="round"/>
<path d="M56.3704 22.3493H70.3375" stroke="white" stroke-width="1.5" stroke-linecap="round"/>
<path d="M63.3539 69.8375C63.3539 69.8375 75.9243 48.8869 71.7342 40.5066C71.7342 40.5066 68.9408 33.523 63.3539 33.523C57.7671 33.523 54.9737 40.5066 54.9737 40.5066C50.7835 48.8869 63.3539 69.8375 63.3539 69.8375Z" fill="black" stroke="white" stroke-width="1.5"/>
<path d="M32.6263 103.359C47.9901 113.136 75.9243 113.136 91.2881 103.359V83.8046C91.2881 83.8046 116.429 71.2342 108.049 54.4737C96.875 36.3165 70.3375 44.6967 63.3539 65.6474C53.5769 44.6967 27.0394 36.3165 18.6591 54.4737C10.2789 71.2342 32.6263 82.4079 32.6263 82.4079V103.359Z" fill="black"/>
<path d="M63.3539 65.6474C70.3375 44.6967 96.875 36.3165 108.049 54.4737C116.429 71.2342 91.2881 83.8046 91.2881 83.8046V103.359C75.9243 113.136 47.9901 113.136 32.6263 103.359V82.4079C32.6263 82.4079 10.2789 71.2342 18.6591 54.4737C27.0394 36.3165 53.5769 44.6967 63.3539 65.6474ZM63.3539 65.6474V75.4244" stroke="white" stroke-width="1.5" stroke-linecap="round" stroke-linejoin="round"/>
<path d="M32.6262 83.8046C47.99 75.4244 75.9243 75.4244 91.2881 83.8046" stroke="white" stroke-width="1.5" stroke-linecap="round" stroke-linejoin="round"/>
<path d="M32.6262 93.5816C47.99 85.2014 75.9243 85.2014 91.2881 93.5816" stroke="white" stroke-width="1.5" stroke-linecap="round" stroke-linejoin="round"/>
<path d="M32.6262 103.359C47.99 94.9784 75.9243 94.9784 91.2881 103.359" stroke="white" stroke-width="1.5" stroke-linecap="round" stroke-linejoin="round"/>
</svg>
