<svg width="127" height="126" viewBox="0 0 127 126" fill="none" xmlns="http://www.w3.org/2000/svg">
<g clip-path="url(#clip0_4_1192)">
<path d="M62.3322 25.2678C56.1588 25.2678 51.1586 30.268 51.1586 36.4415C51.1586 38.9276 51.9687 41.2182 53.3374 43.0898C47.8903 46.2184 44.175 52.0567 44.175 58.7888C44.175 64.4595 46.8008 69.5156 50.9071 72.8398C42.5269 75.8008 30.2079 88.3433 30.2079 110.467H94.4566C94.4566 88.3433 82.1376 75.8008 73.7574 72.8398C77.8665 69.5156 80.4895 64.4595 80.4895 58.7888C80.4895 52.0567 76.7742 46.2184 71.3299 43.0898C72.6959 41.2182 73.5059 38.9276 73.5059 36.4415C73.5059 30.268 68.5057 25.2678 62.3322 25.2678Z" fill="black" stroke="white" stroke-width="1.5" stroke-linecap="round"/>
<path d="M62.3322 25.2678C56.1588 25.2678 51.1586 30.268 51.1586 36.4415C51.1586 38.9276 51.9687 41.2182 53.3374 43.0898C47.8903 46.2184 44.175 52.0567 44.175 58.7888C44.175 64.4595 46.8008 69.5156 50.9071 72.8398C42.5269 75.8008 30.2079 88.3433 30.2079 110.467H94.4566C94.4566 88.3433 82.1376 75.8008 73.7574 72.8398C77.8665 69.5156 80.4895 64.4595 80.4895 58.7888C80.4895 52.0567 76.7742 46.2184 71.3299 43.0898C72.6959 41.2182 73.5059 38.9276 73.5059 36.4415C73.5059 30.268 68.5057 25.2678 62.3322 25.2678Z" fill="black" stroke="white" stroke-width="1.5" stroke-linecap="round"/>
</g>
<defs>
<clipPath id="clip0_4_1192">
<rect width="125.704" height="125.704" fill="white" transform="translate(0.876953 0.126953)"/>
</clipPath>
</defs>
</svg>
