<svg width="126" height="126" viewBox="0 0 126 126" fill="none" xmlns="http://www.w3.org/2000/svg">
<path d="M25.1408 108.945H100.563V100.565H25.1408V108.945Z" fill="black" stroke="white" stroke-width="1.5" stroke-linejoin="round"/>
<path d="M33.5211 100.565V89.3915H92.1829V100.565H33.5211Z" fill="black" stroke="white" stroke-width="1.5" stroke-linejoin="round"/>
<path d="M30.7277 39.1099V25.1428H41.9014V30.7296H55.8685V25.1428H69.8356V30.7296H83.8027V25.1428H94.9764V39.1099" fill="black"/>
<path d="M30.7277 39.1099V25.1428H41.9014V30.7296H55.8685V25.1428H69.8356V30.7296H83.8027V25.1428H94.9764V39.1099" stroke="white" stroke-width="1.5" stroke-linejoin="round"/>
<path d="M94.9764 39.1099L86.5961 47.4901H39.1079L30.7277 39.1099" fill="black"/>
<path d="M94.9764 39.1099L86.5961 47.4901H39.1079L30.7277 39.1099" stroke="white" stroke-width="1.5" stroke-linecap="round" stroke-linejoin="round"/>
<path d="M86.5961 47.4901V82.4079H39.1079V47.4901" fill="black"/>
<path d="M86.5961 47.4901V82.4079H39.1079V47.4901" stroke="white" stroke-width="1.5"/>
<path d="M86.5961 82.4079L90.7862 89.3915H34.9178L39.1079 82.4079" fill="black"/>
<path d="M86.5961 82.4079L90.7862 89.3915H34.9178L39.1079 82.4079" stroke="white" stroke-width="1.5" stroke-linecap="round" stroke-linejoin="round"/>
<path d="M30.7277 39.1099H94.9764" stroke="white" stroke-width="1.5" stroke-linecap="round"/>
</svg>
