<svg width="126" height="126" viewBox="0 0 126 126" fill="none" xmlns="http://www.w3.org/2000/svg">
<path d="M61.5803 27.9362C90.9113 30.7296 107.672 50.2836 106.275 108.945H42.0264C42.0264 83.8046 69.9606 90.7882 64.3738 50.2836" fill="black"/>
<path d="M61.5803 27.9362C90.9113 30.7296 107.672 50.2836 106.275 108.945H42.0264C42.0264 83.8046 69.9606 90.7882 64.3738 50.2836" stroke="white" stroke-width="1.5" stroke-linecap="round" stroke-linejoin="round"/>
<path d="M67.1671 50.2836C68.2286 58.4124 51.6636 70.8711 44.8197 75.4244C36.4395 81.0112 36.9423 87.5478 30.8526 86.5981C27.9419 83.975 34.7913 78.1061 30.8526 78.2178C28.0592 78.2178 31.3834 81.6537 28.0592 83.8046C25.2658 83.8046 16.8771 86.5981 16.8855 72.6309C16.8855 67.0441 33.646 39.1099 33.646 39.1099C33.646 39.1099 38.9256 33.8024 39.2329 29.3329C37.1937 26.5562 37.8362 23.746 37.8362 20.9526C40.6296 18.1592 46.2164 27.9362 46.2164 27.9362H51.8033C51.8033 27.9362 53.9822 22.3717 58.7868 19.5559C61.5803 19.5559 61.5803 27.9362 61.5803 27.9362" fill="black"/>
<path d="M67.1671 50.2836C68.2286 58.4124 51.6636 70.8711 44.8197 75.4244C36.4395 81.0112 36.9423 87.5478 30.8526 86.5981C27.9419 83.975 34.7913 78.1061 30.8526 78.2178C28.0592 78.2178 31.3834 81.6537 28.0592 83.8046C25.2658 83.8046 16.8771 86.5981 16.8855 72.6309C16.8855 67.0441 33.646 39.1099 33.646 39.1099C33.646 39.1099 38.9256 33.8024 39.2329 29.3329C37.1937 26.5562 37.8362 23.746 37.8362 20.9526C40.6296 18.1592 46.2164 27.9362 46.2164 27.9362H51.8033C51.8033 27.9362 53.9822 22.3717 58.7868 19.5559C61.5803 19.5559 61.5803 27.9362 61.5803 27.9362" stroke="white" stroke-width="1.5" stroke-linecap="round" stroke-linejoin="round"/>
<path d="M26.6624 71.2342C26.6624 72.0052 26.0367 72.6309 25.2657 72.6309C24.4947 72.6309 23.869 72.0052 23.869 71.2342C23.869 70.4633 24.4947 69.8375 25.2657 69.8375C26.0367 69.8375 26.6624 70.4633 26.6624 71.2342Z" fill="white" stroke="white" stroke-width="1.5" stroke-linecap="round" stroke-linejoin="round"/>
<path d="M41.8391 43.9984C40.6799 46.0013 39.2021 47.3142 38.5345 46.9287C37.8669 46.5432 38.2636 44.6045 39.42 42.6017C40.5793 40.5988 42.057 39.2859 42.7247 39.6714C43.3923 40.0569 42.9956 41.9955 41.8391 43.9984Z" fill="white" stroke="white" stroke-width="1.5" stroke-linecap="round" stroke-linejoin="round"/>
</svg>
