<svg width="126" height="126" viewBox="0 0 126 126" fill="none" xmlns="http://www.w3.org/2000/svg">
<path d="M25.3927 100.565C34.8624 97.8556 53.6342 101.766 63.1039 94.9783C72.5764 101.766 91.3426 97.8556 100.815 100.565C100.815 100.565 105.424 102.074 109.195 106.152C107.296 108.862 104.586 108.918 100.815 107.549C91.3426 104.839 72.5764 108.834 63.1039 104.755C53.6342 108.834 34.8624 104.839 25.3927 107.549C21.6104 108.918 18.9036 108.862 17.0125 106.152C20.7947 100.736 25.3927 100.565 25.3927 100.565Z" fill="black" stroke="white" stroke-width="1.5" stroke-linejoin="round"/>
<path d="M42.1533 89.3915C49.1368 96.375 77.071 96.375 84.0546 89.3915C85.4513 85.2013 84.0546 83.8046 84.0546 83.8046C84.0546 76.8211 77.071 72.6309 77.071 72.6309C92.4349 68.4408 93.8316 40.5066 63.1039 29.3329C32.3763 40.5066 33.773 68.4408 49.1368 72.6309C49.1368 72.6309 42.1533 76.8211 42.1533 83.8046C42.1533 83.8046 40.7565 85.2013 42.1533 89.3915Z" fill="black" stroke="white" stroke-width="1.5" stroke-linejoin="round"/>
<path d="M70.0875 22.3493C70.0875 26.2071 66.9616 29.3329 63.1039 29.3329C59.2462 29.3329 56.1204 26.2071 56.1204 22.3493C56.1204 18.4916 59.2462 15.3658 63.1039 15.3658C66.9616 15.3658 70.0875 18.4916 70.0875 22.3493Z" fill="black" stroke="white" stroke-width="1.5" stroke-linejoin="round"/>
<path d="M49.1368 72.631H77.071M42.1532 83.8047H84.0545M63.1039 43.3V57.2671M56.1203 50.2836H70.0874" stroke="white" stroke-width="1.5" stroke-linecap="round"/>
</svg>
