<svg width="127" height="127" viewBox="0 0 127 127" fill="none" xmlns="http://www.w3.org/2000/svg">
<path d="M63.3539 33.3625V17.6355" stroke="black" stroke-width="1.5" stroke-linecap="round"/>
<path d="M56.3704 23.2223H70.3375" stroke="black" stroke-width="1.5" stroke-linecap="round"/>
<path d="M63.3539 70.7105C63.3539 70.7105 75.9243 49.7598 71.7342 41.3796C71.7342 41.3796 68.9408 34.396 63.3539 34.396C57.7671 34.396 54.9737 41.3796 54.9737 41.3796C50.7835 49.7598 63.3539 70.7105 63.3539 70.7105Z" fill="#E4E4E4" stroke="black" stroke-width="1.5"/>
<path d="M32.6263 104.232C47.9901 114.009 75.9243 114.009 91.2881 104.232V84.6776C91.2881 84.6776 116.429 72.1072 108.049 55.3467C96.875 37.1894 70.3375 45.5697 63.3539 66.5204C53.5769 45.5697 27.0394 37.1894 18.6591 55.3467C10.2789 72.1072 32.6263 83.2809 32.6263 83.2809V104.232Z" fill="#E4E4E4"/>
<path d="M63.3539 66.5204C70.3375 45.5697 96.875 37.1894 108.049 55.3467C116.429 72.1072 91.2881 84.6776 91.2881 84.6776V104.232C75.9243 114.009 47.9901 114.009 32.6263 104.232V83.2809C32.6263 83.2809 10.2789 72.1072 18.6591 55.3467C27.0394 37.1894 53.5769 45.5697 63.3539 66.5204ZM63.3539 66.5204V76.2974" stroke="black" stroke-width="1.5" stroke-linecap="round" stroke-linejoin="round"/>
<path d="M32.6262 84.6777C47.99 76.2974 75.9243 76.2974 91.2881 84.6777" stroke="black" stroke-width="1.5" stroke-linecap="round" stroke-linejoin="round"/>
<path d="M32.6262 94.4546C47.99 86.0744 75.9243 86.0744 91.2881 94.4546" stroke="black" stroke-width="1.5" stroke-linecap="round" stroke-linejoin="round"/>
<path d="M32.6262 104.232C47.99 95.8513 75.9243 95.8513 91.2881 104.232" stroke="black" stroke-width="1.5" stroke-linecap="round" stroke-linejoin="round"/>
</svg>
