<svg width="126" height="127" viewBox="0 0 126 127" fill="none" xmlns="http://www.w3.org/2000/svg">
<path d="M25.1408 109.818H100.563V101.438H25.1408V109.818Z" fill="#E4E4E4" stroke="black" stroke-width="1.5" stroke-linejoin="round"/>
<path d="M33.5211 101.438V90.2645H92.1829V101.438H33.5211Z" fill="#E4E4E4" stroke="black" stroke-width="1.5" stroke-linejoin="round"/>
<path d="M30.7277 39.9829V26.0157H41.9014V31.6026H55.8685V26.0157H69.8356V31.6026H83.8027V26.0157H94.9764V39.9829" fill="#E4E4E4"/>
<path d="M30.7277 39.9829V26.0157H41.9014V31.6026H55.8685V26.0157H69.8356V31.6026H83.8027V26.0157H94.9764V39.9829" stroke="black" stroke-width="1.5" stroke-linejoin="round"/>
<path d="M94.9764 39.9829L86.5961 48.3632H39.1079L30.7277 39.9829" fill="#E4E4E4"/>
<path d="M94.9764 39.9829L86.5961 48.3632H39.1079L30.7277 39.9829" stroke="black" stroke-width="1.5" stroke-linecap="round" stroke-linejoin="round"/>
<path d="M86.5961 48.3632V83.2809H39.1079V48.3632" fill="#E4E4E4"/>
<path d="M86.5961 48.3632V83.2809H39.1079V48.3632" stroke="black" stroke-width="1.5"/>
<path d="M86.5961 83.2809L90.7862 90.2644H34.9178L39.1079 83.2809" fill="#E4E4E4"/>
<path d="M86.5961 83.2809L90.7862 90.2644H34.9178L39.1079 83.2809" stroke="black" stroke-width="1.5" stroke-linecap="round" stroke-linejoin="round"/>
<path d="M30.7277 39.9829H94.9764" stroke="black" stroke-width="1.5" stroke-linecap="round"/>
</svg>
