<svg width="126" height="127" viewBox="0 0 126 127" fill="none" xmlns="http://www.w3.org/2000/svg">
<path d="M25.3927 101.438C34.8624 98.7285 53.6342 102.639 63.1039 95.8513C72.5764 102.639 91.3426 98.7285 100.815 101.438C100.815 101.438 105.424 102.947 109.195 107.025C107.296 109.735 104.586 109.79 100.815 108.422C91.3426 105.712 72.5764 109.707 63.1039 105.628C53.6342 109.707 34.8624 105.712 25.3927 108.422C21.6104 109.79 18.9036 109.735 17.0125 107.025C20.7947 101.609 25.3927 101.438 25.3927 101.438Z" fill="#E4E4E4" stroke="black" stroke-width="1.5" stroke-linejoin="round"/>
<path d="M42.1533 90.2645C49.1368 97.2481 77.071 97.2481 84.0546 90.2645C85.4513 86.0744 84.0546 84.6777 84.0546 84.6777C84.0546 77.6941 77.071 73.504 77.071 73.504C92.4349 69.3139 93.8316 41.3796 63.1039 30.2059C32.3763 41.3796 33.773 69.3139 49.1368 73.504C49.1368 73.504 42.1533 77.6941 42.1533 84.6777C42.1533 84.6777 40.7565 86.0744 42.1533 90.2645Z" fill="#E4E4E4" stroke="black" stroke-width="1.5" stroke-linejoin="round"/>
<path d="M70.0875 23.2223C70.0875 27.08 66.9616 30.2059 63.1039 30.2059C59.2462 30.2059 56.1204 27.08 56.1204 23.2223C56.1204 19.3646 59.2462 16.2388 63.1039 16.2388C66.9616 16.2388 70.0875 19.3646 70.0875 23.2223Z" fill="#E4E4E4" stroke="black" stroke-width="1.5" stroke-linejoin="round"/>
<path d="M49.1368 73.5039H77.071M42.1532 84.6776H84.0545M63.1039 44.173V58.1401M56.1203 51.1565H70.0874" stroke="black" stroke-width="1.5" stroke-linecap="round"/>
</svg>
