<svg width="127" height="127" viewBox="0 0 127 127" fill="none" xmlns="http://www.w3.org/2000/svg">
<path d="M22.7244 34.396C22.7244 37.48 20.2214 39.9829 17.1375 39.9829C14.0536 39.9829 11.5507 37.48 11.5507 34.396C11.5507 31.3121 14.0536 28.8092 17.1375 28.8092C20.2214 28.8092 22.7244 31.3121 22.7244 34.396Z" fill="#E4E4E4" stroke="black" stroke-width="1.5" stroke-linecap="round" stroke-linejoin="round"/>
<path d="M68.8158 21.8256C68.8158 24.9096 66.3129 27.4125 63.2289 27.4125C60.145 27.4125 57.6421 24.9096 57.6421 21.8256C57.6421 18.7417 60.145 16.2388 63.2289 16.2388C66.3129 16.2388 68.8158 18.7417 68.8158 21.8256Z" fill="#E4E4E4" stroke="black" stroke-width="1.5" stroke-linecap="round" stroke-linejoin="round"/>
<path d="M114.907 34.396C114.907 37.48 112.404 39.9829 109.32 39.9829C106.237 39.9829 103.734 37.48 103.734 34.396C103.734 31.3121 106.237 28.8092 109.32 28.8092C112.404 28.8092 114.907 31.3121 114.907 34.396Z" fill="#E4E4E4" stroke="black" stroke-width="1.5" stroke-linecap="round" stroke-linejoin="round"/>
<path d="M45.0718 24.6191C45.0718 27.703 42.5689 30.2059 39.4849 30.2059C36.401 30.2059 33.8981 27.703 33.8981 24.6191C33.8981 21.5351 36.401 19.0322 39.4849 19.0322C42.5689 19.0322 45.0718 21.5351 45.0718 24.6191Z" fill="#E4E4E4" stroke="black" stroke-width="1.5" stroke-linecap="round" stroke-linejoin="round"/>
<path d="M92.5599 26.0158C92.5599 29.0997 90.057 31.6026 86.9731 31.6026C83.8891 31.6026 81.3862 29.0997 81.3862 26.0158C81.3862 22.9319 83.8891 20.429 86.9731 20.429C90.057 20.429 92.5599 22.9319 92.5599 26.0158Z" fill="#E4E4E4" stroke="black" stroke-width="1.5" stroke-linecap="round" stroke-linejoin="round"/>
<path d="M25.5178 73.504C49.2619 69.3138 84.1796 69.3138 100.94 73.504L106.527 39.9829L86.9731 70.7105V31.6026L71.6092 69.3138L63.229 27.4125L54.8487 69.3138L39.4849 30.2059V70.7105L19.9309 39.9829L25.5178 73.504Z" fill="#E4E4E4" stroke="black" stroke-width="1.5" stroke-linejoin="round"/>
<path d="M25.5178 73.5039C25.5178 79.0908 29.708 79.0908 32.5014 84.6776C35.2948 88.8678 35.2948 87.471 33.8981 94.4546C29.708 97.248 29.708 101.438 29.708 101.438C25.5178 105.628 31.1047 108.422 31.1047 108.422C49.2619 111.215 77.1961 111.215 95.3534 108.422C95.3534 108.422 99.5435 105.628 95.3534 101.438C95.3534 101.438 96.7501 97.248 92.56 94.4546C91.1633 87.471 91.1633 88.8678 93.9567 84.6776C96.7501 79.0908 100.94 79.0908 100.94 73.5039C77.1961 69.3138 49.2619 69.3138 25.5178 73.5039Z" fill="#E4E4E4" stroke="black" stroke-width="1.5" stroke-linejoin="round"/>
<path d="M32.5013 84.6776C42.2783 81.8842 84.1797 81.8842 93.9566 84.6776" stroke="black" stroke-width="1.5" stroke-linecap="round" stroke-linejoin="round"/>
<path d="M33.8981 94.4546C50.6586 91.6611 75.7994 91.6611 92.56 94.4546" stroke="black" stroke-width="1.5" stroke-linecap="round" stroke-linejoin="round"/>
</svg>
