<svg width="126" height="127" viewBox="0 0 126 127" fill="none" xmlns="http://www.w3.org/2000/svg">
<path d="M61.5803 28.8092C90.9113 31.6026 107.672 51.1566 106.275 109.818H42.0264C42.0264 84.6777 69.9606 91.6612 64.3738 51.1566" fill="#E4E4E4"/>
<path d="M61.5803 28.8092C90.9113 31.6026 107.672 51.1566 106.275 109.818H42.0264C42.0264 84.6777 69.9606 91.6612 64.3738 51.1566" stroke="black" stroke-width="1.5" stroke-linecap="round" stroke-linejoin="round"/>
<path d="M67.1671 51.1566C68.2286 59.2855 51.6636 71.7441 44.8197 76.2974C36.4395 81.8843 36.9423 88.4209 30.8526 87.4711C27.9419 84.8481 34.7913 78.9791 30.8526 79.0908C28.0592 79.0908 31.3834 82.5268 28.0592 84.6777C25.2658 84.6777 16.8771 87.4711 16.8855 73.504C16.8855 67.9171 33.646 39.9829 33.646 39.9829C33.646 39.9829 38.9256 34.6754 39.2329 30.2059C37.1937 27.4293 37.8362 24.6191 37.8362 21.8257C40.6296 19.0322 46.2164 28.8092 46.2164 28.8092H51.8033C51.8033 28.8092 53.9822 23.2447 58.7868 20.429C61.5803 20.429 61.5803 28.8092 61.5803 28.8092" fill="#E4E4E4"/>
<path d="M67.1671 51.1566C68.2286 59.2855 51.6636 71.7441 44.8197 76.2974C36.4395 81.8843 36.9423 88.4209 30.8526 87.4711C27.9419 84.8481 34.7913 78.9791 30.8526 79.0908C28.0592 79.0908 31.3834 82.5268 28.0592 84.6777C25.2658 84.6777 16.8771 87.4711 16.8855 73.504C16.8855 67.9171 33.646 39.9829 33.646 39.9829C33.646 39.9829 38.9256 34.6754 39.2329 30.2059C37.1937 27.4293 37.8362 24.6191 37.8362 21.8257C40.6296 19.0322 46.2164 28.8092 46.2164 28.8092H51.8033C51.8033 28.8092 53.9822 23.2447 58.7868 20.429C61.5803 20.429 61.5803 28.8092 61.5803 28.8092" stroke="black" stroke-width="1.5" stroke-linecap="round" stroke-linejoin="round"/>
<path d="M26.6624 72.1073C26.6624 72.8783 26.0367 73.504 25.2657 73.504C24.4947 73.504 23.869 72.8783 23.869 72.1073C23.869 71.3363 24.4947 70.7106 25.2657 70.7106C26.0367 70.7106 26.6624 71.3363 26.6624 72.1073Z" fill="black" stroke="black" stroke-width="1.5" stroke-linecap="round" stroke-linejoin="round"/>
<path d="M41.8391 44.8714C40.6799 46.8742 39.2021 48.1872 38.5345 47.8017C37.8669 47.4162 38.2636 45.4775 39.42 43.4746C40.5793 41.4718 42.057 40.1589 42.7247 40.5443C43.3923 40.9298 42.9956 42.8685 41.8391 44.8714Z" fill="black" stroke="black" stroke-width="1.5" stroke-linecap="round" stroke-linejoin="round"/>
</svg>
