<svg width="127" height="127" viewBox="0 0 127 127" fill="none" xmlns="http://www.w3.org/2000/svg">
<g clip-path="url(#clip0_4_1267)">
<path d="M62.3322 25.8908C56.1588 25.8908 51.1586 30.891 51.1586 37.0645C51.1586 39.5506 51.9687 41.8413 53.3374 43.7128C47.8903 46.8415 44.175 52.6797 44.175 59.4119C44.175 65.0825 46.8008 70.1386 50.9071 73.4628C42.5269 76.4238 30.2079 88.9663 30.2079 111.09H94.4566C94.4566 88.9663 82.1376 76.4238 73.7574 73.4628C77.8665 70.1386 80.4895 65.0825 80.4895 59.4119C80.4895 52.6797 76.7742 46.8415 71.3299 43.7128C72.6959 41.8413 73.5059 39.5506 73.5059 37.0645C73.5059 30.891 68.5057 25.8908 62.3322 25.8908Z" fill="#E4E4E4" stroke="black" stroke-width="1.5" stroke-linecap="round"/>
<path d="M62.3322 25.8908C56.1588 25.8908 51.1586 30.891 51.1586 37.0645C51.1586 39.5506 51.9687 41.8413 53.3374 43.7128C47.8903 46.8415 44.175 52.6797 44.175 59.4119C44.175 65.0825 46.8008 70.1386 50.9071 73.4628C42.5269 76.4238 30.2079 88.9663 30.2079 111.09H94.4566C94.4566 88.9663 82.1376 76.4238 73.7574 73.4628C77.8665 70.1386 80.4895 65.0825 80.4895 59.4119C80.4895 52.6797 76.7742 46.8415 71.3299 43.7128C72.6959 41.8413 73.5059 39.5506 73.5059 37.0645C73.5059 30.891 68.5057 25.8908 62.3322 25.8908Z" fill="#E4E4E4" stroke="black" stroke-width="1.5" stroke-linecap="round"/>
</g>
<defs>
<clipPath id="clip0_4_1267">
<rect width="125.704" height="125.704" fill="white" transform="translate(0.876953 0.75)"/>
</clipPath>
</defs>
</svg>
